<svg width="544" height="520" viewBox="0 0 544 520" fill="none" xmlns="http://www.w3.org/2000/svg">
<g clip-path="url(#clip0_616_2)">
<path d="M34.3494 463.908L31.414 471.846L26.2885 465.094L18.3184 462.168L25.0926 457.071L28.028 449.133L33.1508 455.875L41.1209 458.8L34.3494 463.908Z" fill="white"/>
<path d="M409.716 475.007L406.78 482.945L401.655 476.193L393.685 473.268L400.459 468.17L403.394 460.233L408.517 466.975L416.487 469.9L409.716 475.007Z" fill="white"/>
<path d="M394.693 22.4796L395.522 26.0015L392.1 24.7953L388.573 25.6218L389.776 22.2191L388.947 18.7047L392.369 19.9035L395.896 19.077L394.693 22.4796Z" fill="white"/>
<path d="M535.702 74.4104L536.532 77.9323L533.11 76.7261L529.583 77.5526L530.786 74.1499L529.957 70.6355L533.379 71.8343L536.905 71.0078L535.702 74.4104Z" fill="white"/>
<path d="M542.797 40.1452L543.626 43.667L540.204 42.4608L536.678 43.2873L537.881 39.8846L537.051 36.3702L540.473 37.569L544 36.7425L542.797 40.1452Z" fill="white"/>
<path d="M423.94 432.943L424.769 436.465L421.347 435.259L417.82 436.085L419.023 432.682L418.194 429.168L421.616 430.367L425.143 429.54L423.94 432.943Z" fill="white"/>
<path d="M192.786 516.478L193.616 520L190.194 518.794L186.667 519.62L187.87 516.218L187.041 512.703L190.463 513.902L193.989 513.075L192.786 516.478Z" fill="white"/>
<path d="M172.21 437.1L173.04 440.621L169.618 439.415L166.091 440.242L167.294 436.839L166.464 433.325L169.886 434.523L173.413 433.697L172.21 437.1Z" fill="#3C3C42"/>
<path d="M6.1194 215.902L6.94876 219.424L3.52669 218.218L0 219.044L1.20296 215.642L0.373589 212.127L3.79567 213.326L7.32234 212.5L6.1194 215.902Z" fill="white"/>
<path d="M94.9143 120.16L95.7437 123.681L92.3216 122.475L88.7949 123.302L89.9979 119.899L89.1685 116.385L92.5906 117.583L96.1173 116.757L94.9143 120.16Z" fill="white"/>
<path d="M20.3108 187.684L21.1402 191.206L17.7181 189.999L14.1914 190.826L15.3944 187.423L14.565 183.909L17.9871 185.108L21.5138 184.281L20.3108 187.684Z" fill="white"/>
<path d="M446.273 17.7824L443.338 25.7202L438.212 18.9681L430.242 16.0429L437.016 10.9455L439.952 3.00769L445.075 9.74962L453.045 12.6749L446.273 17.7824Z" fill="white"/>
<path d="M154.595 494.547C155.243 494.919 156.07 494.699 156.444 494.054C156.817 493.41 156.595 492.585 155.948 492.213C155.301 491.841 154.474 492.062 154.1 492.706C153.726 493.351 153.948 494.175 154.595 494.547Z" fill="white"/>
<path d="M467.856 331.909C468.503 332.281 469.331 332.06 469.704 331.415C470.078 330.771 469.856 329.947 469.209 329.575C468.562 329.202 467.734 329.423 467.361 330.068C466.987 330.712 467.209 331.536 467.856 331.909Z" fill="white"/>
<path d="M17.8962 225.385C18.5434 225.758 19.3709 225.537 19.7444 224.892C20.1179 224.248 19.8961 223.424 19.2489 223.052C18.6018 222.679 17.7743 222.9 17.4008 223.545C17.0273 224.189 17.2491 225.013 17.8962 225.385Z" fill="white"/>
<path d="M135.292 513.914C136.59 514.66 138.25 514.218 138.999 512.925C139.748 511.633 139.303 509.98 138.005 509.233C136.707 508.487 135.048 508.93 134.299 510.222C133.55 511.515 133.995 513.167 135.292 513.914Z" fill="white"/>
<path d="M456.908 351.275C458.206 352.022 459.865 351.579 460.614 350.287C461.363 348.994 460.918 347.341 459.621 346.595C458.323 345.848 456.663 346.291 455.914 347.583C455.165 348.876 455.61 350.529 456.908 351.275Z" fill="white"/>
<path d="M65.0337 83.9682C66.3316 84.7146 67.991 84.272 68.7401 82.9795C69.4893 81.687 69.0444 80.0341 67.7465 79.2876C66.4486 78.5412 64.7892 78.9839 64.0401 80.2764C63.291 81.5689 63.7358 83.2218 65.0337 83.9682Z" fill="white"/>
<path d="M459.071 496.158L456.136 504.095L451.01 497.343L443.04 494.418L449.814 489.321L452.75 481.383L457.873 488.125L465.843 491.05L459.071 496.158Z" fill="#3C3C42"/>
<path d="M165.613 57.7497L162.678 65.6875L157.552 58.9354L149.582 56.0102L156.356 50.9128L159.292 42.975L164.415 49.7169L172.385 52.6422L165.613 57.7497Z" fill="#3C3C42"/>
<path d="M271.44 3.77498L272.269 7.29684L268.847 6.09063L265.32 6.9171L266.523 3.5144L265.694 0L269.116 1.19879L272.643 0.372286L271.44 3.77498Z" fill="#3C3C42"/>
<path d="M534.386 467.096L535.215 470.618L531.793 469.411L528.267 470.238L529.47 466.835L528.64 463.321L532.062 464.52L535.589 463.693L534.386 467.096Z" fill="#3C3C42"/>
<path d="M468.499 464.072L469.329 467.594L465.907 466.388L462.38 467.215L463.583 463.812L462.753 460.297L466.176 461.496L469.702 460.67L468.499 464.072Z" fill="#3C3C42"/>
<path d="M128.412 43.805L129.242 47.3268L125.82 46.1206L122.293 46.9471L123.496 43.5444L122.667 40.03L126.089 41.2288L129.615 40.4023L128.412 43.805Z" fill="#3C3C42"/>
<path d="M90.2224 37.9989C90.8696 38.3711 91.697 38.1504 92.0706 37.5059C92.4441 36.8614 92.2223 36.0372 91.5751 35.665C90.928 35.2928 90.1005 35.5136 89.727 36.1581C89.3534 36.8025 89.5752 37.6267 90.2224 37.9989Z" fill="#3C3C42"/>
<path d="M372.653 491.008C373.3 491.38 374.128 491.159 374.501 490.515C374.875 489.87 374.653 489.046 374.006 488.674C373.359 488.302 372.531 488.522 372.158 489.167C371.784 489.811 372.006 490.636 372.653 491.008Z" fill="#3C3C42"/>
<path d="M70.9183 57.3654C72.2162 58.1118 73.8757 57.6691 74.6249 56.3767C75.3741 55.0842 74.9292 53.4314 73.6313 52.685C72.3334 51.9386 70.6739 52.3813 69.9248 53.6738C69.1756 54.9662 69.6204 56.619 70.9183 57.3654Z" fill="#3C3C42"/>
<path d="M353.35 510.375C354.648 511.121 356.307 510.678 357.057 509.386C357.806 508.093 357.361 506.441 356.063 505.694C354.765 504.948 353.106 505.39 352.356 506.683C351.607 507.975 352.052 509.628 353.35 510.375Z" fill="#3C3C42"/>
<path d="M373.974 512.157C375.272 512.904 376.931 512.461 377.681 511.169C378.43 509.876 377.985 508.223 376.687 507.477C375.389 506.73 373.73 507.173 372.981 508.465C372.231 509.758 372.676 511.411 373.974 512.157Z" fill="#3C3C42"/>
<path d="M155.917 515.697C157.215 516.443 158.875 516 159.624 514.708C160.373 513.415 159.928 511.763 158.63 511.016C157.332 510.27 155.673 510.712 154.924 512.005C154.175 513.297 154.62 514.95 155.917 515.697Z" fill="white"/>
<path fill-rule="evenodd" clip-rule="evenodd" d="M34.6593 269.874C34.0728 264.751 30.4243 261.22 26.5126 261.989C22.6011 262.757 19.9056 267.535 20.4922 272.664L20.6345 274.11L20.7725 275.325C20.8716 276.11 20.9709 276.889 21.083 277.646C21.303 279.171 21.5574 280.657 21.8291 282.143C22.3811 285.102 23.0323 287.994 23.7741 290.847C25.2361 296.569 27.0991 302.093 29.2382 307.454C33.5552 318.146 39.1704 328.048 45.7731 336.741C49.0852 341.074 52.6475 345.084 56.3865 348.778C56.5058 348.892 56.6247 349.007 56.7434 349.123C56.7887 349.167 56.834 349.212 56.8792 349.256C56.9319 349.308 56.9847 349.359 57.0374 349.411C57.1356 349.508 57.2337 349.605 57.3319 349.701L57.3329 349.702L57.3332 349.703C57.9561 350.317 58.5797 350.932 59.2243 351.495L62.1267 354.088C62.5142 354.406 62.9016 354.727 63.2893 355.048H63.29H63.2905L63.293 355.051L63.2951 355.052C64.882 356.366 66.4759 357.685 68.117 358.855C68.4587 359.103 68.803 359.36 69.1473 359.617C69.8241 360.123 70.5015 360.629 71.1618 361.064C71.5463 361.318 71.9302 361.578 72.3142 361.837C72.9293 362.254 73.5447 362.67 74.1634 363.063C76.1731 364.368 78.1914 365.628 80.2227 366.837C84.2896 369.254 88.3952 371.485 92.531 373.553C109.092 381.788 126.079 387.572 143.17 391.916C151.722 394.068 160.305 395.893 168.908 397.356C173.212 398.101 177.521 398.745 181.833 399.327C183.575 399.569 185.316 399.781 187.06 399.994C187.476 400.044 187.891 400.095 188.307 400.146C188.939 400.213 189.571 400.283 190.203 400.353H190.205H190.207H190.209H190.211C191.752 400.523 193.294 400.693 194.836 400.829C212.272 402.501 229.877 402.778 247.615 401.389C265.215 399.988 282.944 397.05 300.816 391.651C297.724 394.192 294.588 396.683 291.406 399.095C287.735 401.886 284.005 404.586 280.227 407.212C276.436 409.805 272.611 412.335 268.725 414.742C260.962 419.56 253.006 423.983 244.898 427.976C236.764 431.987 228.591 435.517 220.225 438.443C216.046 439.928 211.819 441.205 207.572 442.386L201.18 444.063C200.483 444.223 199.785 444.388 199.088 444.553C197.645 444.895 196.2 445.237 194.75 445.537C186.155 447.424 177.482 448.847 168.766 449.915C164.41 450.457 160.042 450.898 155.664 451.225C151.287 451.542 146.905 451.734 142.523 451.847C138.142 451.96 133.756 451.971 129.387 451.813C127.201 451.74 125.018 451.643 122.849 451.502C121.762 451.44 120.68 451.361 119.606 451.259L118.006 451.107L116.492 450.943L116.225 450.915C111.929 450.446 108.16 454.632 107.802 460.257C107.461 465.669 110.424 470.447 114.47 471.221L116.294 471.566L118.036 471.865L121.486 472.43C123.781 472.797 126.071 473.114 128.356 473.407C132.932 473.972 137.504 474.486 142.079 474.893C146.659 475.294 151.239 475.61 155.824 475.802C160.412 476.011 165.001 476.203 169.598 476.232C187.988 476.429 206.433 475.017 224.952 472.357C229.583 471.701 234.232 471.012 238.877 470.188C243.543 469.391 248.132 468.55 252.76 467.578C261.997 465.657 271.24 463.432 280.473 460.805C285.087 459.501 289.706 458.105 294.317 456.597C298.931 455.106 303.541 453.507 308.143 451.785C317.342 448.339 326.511 444.425 335.623 439.951C344.727 435.466 353.762 430.371 362.651 424.491C367.097 421.554 371.513 418.425 375.869 415.052C380.242 411.708 384.546 408.099 388.807 404.252C397.32 396.542 405.596 387.793 413.458 377.484C421.26 367.113 428.781 355.268 434.983 340.452C436.536 336.758 437.98 332.849 439.309 328.748C440.65 324.653 441.832 320.315 442.854 315.785C444.885 306.714 446.192 296.687 446.196 286.091C446.205 280.798 445.877 275.404 445.204 270.026C444.876 267.338 444.441 264.666 443.928 262.017C443.427 259.39 442.806 256.707 442.155 254.227C440.033 246.274 437.26 238.739 433.935 231.865C437.01 233.181 440.025 234.627 442.974 236.203C448.878 239.389 454.459 243.219 459.462 247.743C464.499 252.222 468.95 257.419 472.473 263.372C472.778 263.871 473.062 264.38 473.346 264.89L473.347 264.891V264.892L473.348 264.894L473.349 264.896C473.486 265.141 473.623 265.387 473.763 265.632L474.379 266.784C474.51 267.031 474.635 267.301 474.76 267.573C474.83 267.723 474.899 267.874 474.97 268.021C475.755 269.699 476.497 271.433 477.174 273.223C477.864 275.003 478.498 276.844 479.08 278.736C479.671 280.623 480.206 282.56 480.689 284.537C482.617 292.445 483.837 300.997 484.29 309.837C484.738 318.677 484.587 327.8 483.802 336.939C483.436 341.514 482.923 346.095 482.272 350.653C481.939 352.93 481.599 355.212 481.206 357.466C481.012 358.59 480.809 359.714 480.594 360.826L480.266 362.476L479.951 364.001L479.839 364.532C479.015 368.514 480.809 372.609 483.85 373.688C486.494 374.626 489.211 372.96 490.41 369.887L491.134 368.034L491.794 366.277C492.225 365.108 492.643 363.944 493.049 362.775C493.86 360.437 494.636 358.087 495.356 355.703C496.797 350.942 498.095 346.101 499.246 341.164C501.493 331.285 503.214 321.055 504.038 310.464C504.853 299.89 504.9 288.926 503.611 277.861C503.3 275.099 502.903 272.325 502.42 269.563C501.95 266.795 501.385 264.033 500.73 261.294C500.087 258.549 499.341 255.82 498.509 253.126C498.099 251.793 497.65 250.415 497.193 249.025C496.723 247.658 496.24 246.291 495.714 244.964C491.57 234.254 485.976 224.821 479.744 216.687C476.618 212.62 473.305 208.887 469.894 205.424C466.478 201.956 462.959 198.748 459.358 195.793C455.352 192.483 451.246 189.501 447.076 186.761L448.896 187.236C449.481 187.414 450.068 187.587 450.657 187.76C452.043 188.168 453.432 188.577 454.791 189.06C456.205 189.511 457.595 190.024 458.986 190.536C459.529 190.737 460.073 190.937 460.618 191.133C461.219 191.359 461.811 191.604 462.405 191.849V191.85H462.406C462.764 191.998 463.123 192.147 463.485 192.291L464.922 192.879L466.332 193.517C470.123 195.183 473.806 197.11 477.381 199.256C478.958 200.142 480.474 201.126 481.999 202.116H482C482.234 202.268 482.468 202.42 482.703 202.572C482.978 202.763 483.252 202.956 483.527 203.149H483.528L483.529 203.15C484.114 203.561 484.699 203.972 485.295 204.368C485.827 204.73 486.343 205.114 486.86 205.498L486.861 205.499H486.862C487.19 205.743 487.519 205.987 487.852 206.226C488.491 206.676 489.098 207.166 489.706 207.657V207.658C489.923 207.832 490.139 208.007 490.358 208.181L491.608 209.175C491.859 209.396 492.092 209.632 492.325 209.869C492.462 210.008 492.598 210.146 492.738 210.282L493.86 211.4L494.942 212.564C495.645 213.29 496.308 214.063 496.973 214.838L497.073 214.953C499.863 218.207 502.45 221.737 504.814 225.544C509.536 233.153 513.37 241.891 516.178 251.539C517.597 256.351 518.778 261.379 519.684 266.575C520.641 271.755 521.31 277.11 521.793 282.555C522.75 293.456 522.811 304.754 522.203 316.135C521.896 321.829 521.4 327.545 520.758 333.25C520.426 336.103 520.072 338.955 519.662 341.791C519.455 343.209 519.24 344.621 519.007 346.022L518.317 350.072L518.222 350.637C517.571 354.449 519.404 358.228 522.315 359.075C524.747 359.787 527.166 358.217 528.27 355.455L529.163 353.218C529.448 352.501 529.72 351.789 529.983 351.071C530.509 349.642 531.018 348.208 531.514 346.767C532.501 343.887 533.446 340.983 534.304 338.04C536.046 332.166 537.564 326.161 538.867 320.038C541.48 307.804 543.197 295.078 543.805 281.979C544.072 275.426 544.081 268.789 543.723 262.096C543.36 255.408 542.627 248.669 541.515 241.953C540.389 235.243 538.811 228.578 536.848 222.042C534.873 215.507 532.398 209.175 529.564 203.103C526.739 197.019 523.449 191.292 519.848 185.948C518.946 184.615 518.041 183.282 517.092 182.017L515.677 180.091L514.224 178.232L512.766 176.38L511.352 174.532C511.184 174.316 511.017 174.098 510.849 173.881V173.88C510.068 172.867 509.284 171.849 508.471 170.9C504.598 166.088 500.419 161.818 496.145 157.796C491.846 153.819 487.408 150.142 482.867 146.815C464.693 133.406 445.096 124.65 425.284 119.239C405.441 113.811 385.292 111.907 365.346 112.574L364.894 112.594H364.893C362.551 112.7 360.206 112.806 357.872 112.992L354.138 113.263L350.416 113.619C345.448 114.093 340.535 114.709 335.477 115.562C325.441 117.256 315.462 119.561 305.581 122.735C305.127 122.88 304.675 123.03 304.224 123.18C304.024 123.247 303.823 123.313 303.623 123.379L307.367 121.436L316.225 117.025C318.122 116.09 320.029 115.183 321.936 114.276H321.937C323.003 113.769 324.07 113.261 325.135 112.749C337.051 107.14 349.088 101.875 361.223 96.9783C367.296 94.5438 373.385 92.1601 379.496 89.9063C382.55 88.7823 385.612 87.6695 388.674 86.5963C391.718 85.5287 394.836 84.4611 397.812 83.5065L397.898 83.4783C401.573 82.2978 403.82 77.44 402.918 72.6275C402.077 68.1482 398.804 65.2844 395.393 65.8662C392.068 66.4254 388.902 67.0242 385.676 67.6568C382.463 68.2838 379.259 68.9503 376.059 69.6338C369.659 71.0064 363.281 72.5032 356.902 74.0622C344.154 77.2084 331.449 80.7501 318.782 84.6702C317.618 85.0424 316.453 85.4086 315.287 85.7748C313.286 86.4033 311.285 87.0319 309.29 87.6921L299.815 90.8666L290.362 94.2218L285.536 95.8768L280.697 97.6166C267.811 102.373 255.058 108.14 242.526 115.076C233.072 120.318 223.74 126.221 214.601 132.954L216.969 130.717C217.482 130.236 217.994 129.752 218.506 129.267L218.507 129.266C220.065 127.791 221.626 126.314 223.235 124.933L226.422 122.12L228.018 120.708L229.635 119.346C238.26 112.048 247.209 105.287 256.408 99.1191L259.863 96.8201L263.356 94.6229C265.109 93.5027 266.879 92.4403 268.649 91.3777C269.227 91.031 269.804 90.6844 270.381 90.3356C272.749 88.9856 275.117 87.6526 277.497 86.3704C278.329 85.924 279.166 85.4998 280.001 85.0764L280.002 85.076C280.361 84.894 280.719 84.7122 281.077 84.5289C282.254 83.9415 283.496 83.3315 284.583 82.8457L284.73 82.7779C288.602 81.0438 290.668 75.5195 289.344 70.4472C288.055 65.5047 284.005 62.816 280.214 64.2846L276.212 65.8436L272.326 67.4196C269.743 68.4589 267.177 69.5491 264.615 70.6562C259.487 72.8421 254.386 75.1354 249.31 77.5304C239.145 82.2865 229.044 87.3984 219.026 93.0017L217.137 94.0298L215.265 95.1143L211.522 97.2833C209.488 98.4386 207.474 99.6683 205.457 100.9C204.989 101.186 204.521 101.472 204.052 101.757L200.322 104.039L196.622 106.434C196.102 106.77 195.583 107.104 195.063 107.438H195.062V107.439L195.061 107.44C193.109 108.695 191.152 109.953 189.174 111.331C184.192 114.771 179.246 118.403 174.385 122.351C169.504 126.266 164.686 130.429 159.903 134.852C155.125 139.274 150.407 144.002 145.767 149.097C143.459 151.656 141.139 154.277 138.879 157.05C136.615 159.818 134.398 162.721 132.195 165.726C127.813 171.77 123.591 178.362 119.705 185.739C115.828 193.122 112.292 201.301 109.432 210.468C108.001 215.055 106.763 219.896 105.792 224.979C104.822 230.057 104.037 235.373 103.679 240.886C103.3 246.393 103.222 252.081 103.528 257.831C103.856 263.581 104.572 269.377 105.663 275.071C107.841 286.441 111.632 297.456 116.501 307.12C121.391 316.779 127.252 325.077 133.471 331.963C136.585 335.386 139.781 338.504 143.028 341.316C145.292 343.271 147.574 345.067 149.868 346.745C149.629 346.728 149.39 346.712 149.15 346.696L149.128 346.695C148.644 346.662 148.16 346.63 147.677 346.592C131.893 345.265 116.207 342.599 101.092 337.848C97.3181 336.651 93.5833 335.323 89.9046 333.838C88.0674 333.098 86.2388 332.313 84.4318 331.494C83.8111 331.225 83.2044 330.933 82.5967 330.641C82.3092 330.503 82.0216 330.364 81.7321 330.228L79.1488 328.957C77.8875 328.371 76.6701 327.679 75.4493 326.985L75.4428 326.981C74.996 326.727 74.5487 326.473 74.0987 326.224L71.6405 324.687C71.1171 324.375 70.6159 324.02 70.1143 323.664H70.114H70.1136H70.1132L70.1129 323.663L70.1102 323.662C69.8155 323.453 69.5207 323.244 69.2211 323.044C66.0254 320.79 62.9289 318.276 59.9919 315.463C54.1353 309.815 48.8523 303.019 44.4965 295.185C42.3315 291.271 40.339 287.13 38.6657 282.792C37.8204 280.629 37.0355 278.42 36.3498 276.189C36.0134 275.076 35.6814 273.952 35.3924 272.851C35.2664 272.37 35.15 271.902 35.0349 271.44L34.9784 271.213L34.7973 270.433C34.7806 270.364 34.7622 270.28 34.7443 270.199L34.7441 270.198L34.7438 270.197L34.7437 270.196H34.7436L34.7435 270.195C34.706 270.025 34.671 269.866 34.6593 269.874ZM196.635 250.934C196.384 249.539 196.251 247.816 196.32 245.794C196.462 241.739 197.471 236.57 199.261 231.131C199.761 229.589 200.331 228.024 200.947 226.448C200.934 226.526 200.92 226.604 200.906 226.681C200.899 226.72 200.891 226.759 200.884 226.798L200.864 226.905L200.862 226.912C200.826 227.106 200.789 227.3 200.757 227.499C199.779 233.52 200.145 239.502 201.594 244.913C199.735 247.551 198.252 250.251 197.187 252.996C196.971 252.392 196.777 251.725 196.635 250.934ZM436.116 440.866L436.108 440.877C434.611 442.306 434.288 445.057 435.379 447.012C436.397 448.83 438.277 449.327 439.739 448.243C446.51 443.233 453.095 437.607 459.284 431.06C465.46 424.508 471.269 417.012 476.099 408.088L476.129 408.031C478.057 404.467 477.415 399.524 474.693 397C471.972 394.475 468.198 395.316 466.271 398.88C466.137 399.129 465.999 399.423 465.891 399.683C462.583 407.653 458.085 415.114 452.983 421.96C447.873 428.812 442.154 435.082 436.116 440.866ZM52.9754 384.765L52.9883 384.77C61.9587 390.069 71.1619 394.554 80.5032 397.785C89.8358 401.01 99.3237 402.976 108.613 402.993C108.855 402.993 109.109 403.01 109.351 403.043C113.219 403.586 116.018 408.133 115.604 413.2C115.19 418.266 111.718 421.932 107.85 421.39L107.802 421.384C97.0854 419.882 86.8514 416.233 77.1436 411.42C67.4272 406.591 58.2109 400.586 49.3959 393.859C47.6967 392.549 46.9678 389.736 47.8002 387.324C48.6886 384.754 51.0045 383.607 52.9754 384.765ZM532.158 142.647L532.167 142.652C533.758 143.889 535.815 143.2 536.76 141.116C537.648 139.15 537.221 136.631 535.833 135.315C524.495 124.628 512.54 114.878 499.826 106.688C487.117 98.5203 473.614 91.889 459.33 88.0988L459.304 88.0932C455.496 87.0821 451.779 90.3074 451.007 95.3007C450.235 100.288 452.697 105.157 456.51 106.168C456.717 106.225 456.932 106.27 457.135 106.298C470.138 108.185 483.106 112.811 495.66 119.143C508.227 125.486 520.411 133.53 532.158 142.647ZM249.9 500.068H249.909C271.425 495.47 292.682 489.099 313.158 480.191C323.392 475.734 333.419 470.634 343.11 464.765C352.796 458.89 362.146 452.237 370.944 444.696C371.116 444.549 371.31 444.396 371.492 444.261C375.545 441.335 380.643 443.272 382.873 448.582C385.107 453.892 383.627 460.568 379.574 463.488L379.552 463.505C369.529 470.735 359.14 476.813 348.574 481.976C338.004 487.139 327.252 491.392 316.419 494.939C294.739 502.011 272.736 506.304 250.719 508.778C248.994 508.965 247.407 507.389 247.127 505.112C246.834 502.717 248.076 500.458 249.9 500.068ZM77.7199 163.197L77.7975 163.043L77.9139 162.812C78.936 160.795 78.5177 158.073 76.9781 156.734C75.5506 155.491 73.6573 155.875 72.5748 157.553C72.1436 158.214 71.8245 158.728 71.4794 159.31C71.1387 159.875 70.811 160.439 70.4918 161.01C69.8493 162.145 69.2325 163.298 68.6374 164.461C67.4514 166.794 66.3345 169.178 65.2865 171.612C63.1905 176.481 61.3706 181.565 59.8137 186.795C56.7172 197.256 54.6558 208.373 53.9097 219.726C53.7161 222.041 53.6489 224.363 53.5814 226.693C53.5663 227.217 53.5511 227.742 53.5345 228.267C53.5352 228.77 53.5348 229.274 53.5343 229.779C53.5322 232.132 53.5301 234.492 53.6509 236.841C53.7018 239.094 53.8728 241.333 54.0442 243.578C54.0907 244.186 54.1372 244.795 54.1814 245.404C54.2597 246.331 54.3652 247.249 54.4709 248.168C54.5282 248.665 54.5854 249.163 54.6385 249.663C54.67 249.936 54.7007 250.209 54.7315 250.482C54.8605 251.628 54.9895 252.774 55.1776 253.906C56.7905 265.18 59.4687 276.183 62.9835 286.65L62.9964 286.695C64.8638 292.248 69.8105 294.767 74.0498 292.327C78.2892 289.881 80.2126 283.402 78.3495 277.85C78.2331 277.505 78.0994 277.161 77.9614 276.839C74.218 268.219 71.1905 259.119 69.0385 249.647C68.7905 248.668 68.5995 247.673 68.408 246.676C68.3696 246.476 68.3313 246.276 68.2924 246.077C68.2126 245.651 68.128 245.226 68.0433 244.8C67.8897 244.029 67.736 243.257 67.611 242.479C67.5229 241.898 67.4313 241.317 67.3396 240.735C67.0499 238.897 66.7594 237.054 66.576 235.192C66.3144 233.244 66.1599 231.279 66.0051 229.31C65.966 228.812 65.9268 228.313 65.8859 227.815C65.8612 227.27 65.8339 226.724 65.8067 226.178C65.7103 224.246 65.6137 222.308 65.6272 220.37C65.4935 210.412 66.5199 200.369 68.5555 190.614C69.5819 185.739 70.8584 180.927 72.4066 176.267C73.1829 173.939 74.0239 171.646 74.9253 169.404C75.3824 168.285 75.8482 167.178 76.3355 166.099C76.5813 165.557 76.8272 165.02 77.0773 164.501C77.2846 164.056 77.5314 163.569 77.7199 163.197Z" fill="url(#paint0_radial_616_2)"/>
<path fill-rule="evenodd" clip-rule="evenodd" d="M334.311 98.7405L334.281 98.7518C332.685 99.2376 331.051 99.7686 329.442 100.311C327.829 100.859 326.221 101.435 324.621 102.034C321.421 103.225 318.255 104.525 315.163 105.959L315.15 105.965C315.046 106.01 314.943 106.055 314.835 106.089C313.037 106.671 311.221 105.231 310.777 102.875C310.333 100.52 311.432 98.1418 313.231 97.56C316.599 96.4755 319.963 95.5604 323.331 94.7696C325.013 94.3742 326.699 94.0014 328.386 93.6569C330.076 93.3123 331.749 92.996 333.474 92.7023C334.652 92.5102 335.786 93.51 336.062 95.0577C336.36 96.7071 335.575 98.3621 334.311 98.7405ZM96.2605 346.699L96.2906 346.711C121.74 355.172 148.189 357.821 174.354 356.957C200.537 356.019 226.637 351.568 251.819 343.627C264.403 339.644 276.767 334.781 288.705 328.907C295.571 325.529 302.294 321.778 308.785 317.655C308.573 317.753 308.362 317.855 308.151 317.957C307.854 318.1 307.558 318.243 307.258 318.378C291.146 325.828 274.348 331.714 256.886 334.685C248.157 336.154 239.273 336.86 230.29 336.481C225.796 336.329 221.285 335.854 216.761 335.148C212.237 334.442 207.704 333.397 203.185 332.042C194.15 329.296 185.123 325.275 176.45 319.372C167.816 313.452 159.463 305.618 152.571 295.298C150.842 292.745 149.224 290.016 147.698 287.198C146.201 284.345 144.821 281.369 143.558 278.307C142.32 275.223 141.207 272.049 140.28 268.784C139.9 267.55 139.581 266.283 139.262 265.019L139.261 265.017C139.213 264.823 139.164 264.629 139.115 264.436L139.037 264.13L138.969 263.864L138.421 261.362L137.934 258.842C136.687 252.109 136.148 245.212 136.217 238.479C136.312 231.735 136.998 225.149 138.167 218.896C140.496 206.345 144.644 195.155 149.513 185.152C154.382 175.12 160.075 166.246 166.091 158.084C178.175 141.788 192.015 128.74 206.492 117.776C207.786 116.793 209.464 117.194 210.4 118.787C211.417 120.521 211.172 123.001 209.848 124.334L209.839 124.345C196.97 137.32 185.399 152.407 176.403 169.279C171.918 177.701 168.235 186.716 165.625 195.901C163.021 205.085 161.606 214.496 161.58 223.307C161.559 227.713 161.908 231.967 162.598 235.971C163.262 239.982 164.271 243.749 165.531 247.291C167.903 253.849 171.163 259.481 175.169 264.508C175.146 264.393 175.123 264.278 175.1 264.164L175.099 264.161C175.038 263.855 174.976 263.552 174.911 263.248L174.41 260.689L174.057 258.085L173.729 255.487C173.704 255.272 173.678 255.057 173.651 254.842C173.571 254.193 173.491 253.542 173.462 252.889C173.349 251.149 173.255 249.415 173.168 247.686C173.12 246.995 173.127 246.308 173.134 245.621V245.62V245.619L173.136 245.437L173.137 245.248L173.138 245.105L173.168 242.535L173.216 239.976L173.401 237.463C173.443 236.975 173.48 236.486 173.517 235.997C173.607 234.813 173.697 233.63 173.85 232.475L174.548 227.623C174.564 227.518 174.58 227.413 174.595 227.308V227.307C174.639 227.01 174.683 226.712 174.734 226.42L174.971 225.251L175.454 222.918C175.913 220.467 176.548 218.163 177.18 215.865C177.361 215.208 177.542 214.551 177.718 213.891C178.041 212.83 178.387 211.792 178.733 210.757V210.756L178.734 210.755V210.754C178.859 210.38 178.983 210.007 179.107 209.632L179.814 207.52C179.978 207.06 180.156 206.61 180.333 206.162L180.334 206.159L180.427 205.922C180.484 205.778 180.54 205.635 180.595 205.492L182.182 201.47C182.586 200.522 183.009 199.597 183.432 198.672L183.527 198.464C183.654 198.186 183.781 197.908 183.907 197.629C184.744 195.693 185.68 193.893 186.614 192.096C186.931 191.487 187.247 190.878 187.56 190.264C187.952 189.477 188.381 188.74 188.81 188.003H188.811V188.002C189.048 187.597 189.284 187.191 189.513 186.778C189.718 186.427 189.92 186.074 190.123 185.721L190.126 185.716L190.13 185.709C190.583 184.919 191.036 184.129 191.506 183.367C196.966 174.51 203.003 166.726 209.352 159.716C222.07 145.725 236.008 134.755 250.413 125.757C251.043 125.379 251.67 124.995 252.296 124.61H252.297C253.475 123.887 254.653 123.165 255.847 122.487L261.324 119.403L266.853 116.533C268.04 115.918 269.241 115.352 270.441 114.786C271.102 114.475 271.763 114.164 272.42 113.845C279.868 110.376 287.398 107.366 294.988 104.784C296.726 104.191 298.581 105.327 299.31 107.552C300.116 110.004 299.249 112.851 297.378 113.907L297.347 113.924C290.344 117.872 283.491 122.188 276.832 126.876C276.238 127.308 275.641 127.733 275.045 128.157C273.983 128.913 272.921 129.669 271.877 130.468L266.999 134.202L262.216 138.111C261.185 138.963 260.171 139.85 259.159 140.737L259.156 140.739L259.153 140.742C258.61 141.217 258.068 141.692 257.524 142.161C245.16 153.147 233.731 165.721 224.286 179.853C220.647 185.31 217.321 190.998 214.428 196.844C217.265 193.291 220.198 189.97 223.182 186.846C230.251 179.486 237.707 173.278 245.324 167.777C252.953 162.292 260.772 157.587 268.711 153.458C284.599 145.245 300.957 139.359 317.552 135.462C325.889 133.496 334.113 132.061 342.441 131.027C350.756 130.011 359.096 129.333 367.459 129.226C375.817 129.113 384.187 129.423 392.532 130.282C400.877 131.163 409.201 132.536 417.46 134.49C433.951 138.483 450.236 144.618 465.606 153.853C473.287 158.457 480.744 163.766 487.769 170.025C494.786 176.278 501.462 183.175 507.353 191.585C510.277 195.726 512.951 200.115 515.396 204.667C517.841 209.22 520.063 213.942 522.008 218.828C522.995 221.257 523.914 223.731 524.763 226.239C525.622 228.741 526.424 231.266 527.144 233.836C527.881 236.395 528.533 238.993 529.123 241.62C529.417 242.936 529.701 244.252 529.96 245.585C530.094 246.252 530.215 246.924 530.327 247.607C530.443 248.302 530.542 248.935 530.663 249.737C530.956 251.697 530.202 253.736 528.753 254.595C527.062 255.594 525.078 254.612 524.315 252.397L524.211 252.104L523.655 250.488L523.051 248.799C522.646 247.669 522.219 246.54 521.783 245.421C520.903 243.185 519.968 240.982 519.019 238.796C517.1 234.441 515.038 230.216 512.834 226.16C508.427 218.054 503.467 210.587 497.882 204.249C492.349 198.008 486.027 192.506 479.45 187.806C472.873 183.067 465.926 179.181 458.797 175.945C444.539 169.443 429.505 165.76 414.372 164.026C406.803 163.145 399.191 162.75 391.575 162.823C383.959 162.879 376.338 163.331 368.744 164.229C361.149 165.128 353.567 166.319 346.038 167.952L343.213 168.556L340.397 169.234C339.926 169.349 339.454 169.462 338.983 169.576H338.982H338.981L338.974 169.578H338.973H338.972C337.57 169.916 336.167 170.254 334.768 170.629C331.004 171.584 327.325 172.612 323.655 173.775C322.378 174.182 321.11 174.611 319.842 175.041C323.422 174.719 327.001 174.47 330.581 174.323C342.454 173.883 354.331 174.278 366.152 175.617C372.06 176.374 377.956 177.227 383.817 178.458C386.031 178.872 388.24 179.392 390.447 179.911C391.162 180.08 391.878 180.248 392.593 180.412C393.516 180.638 394.439 180.886 395.36 181.133C395.894 181.277 396.428 181.42 396.962 181.559C398.419 181.938 399.868 182.333 401.317 182.791C412.905 186.264 424.351 190.845 435.353 197.093C440.865 200.165 446.273 203.651 451.474 207.678C456.679 211.683 461.734 216.111 466.426 221.24C468.776 223.793 471.045 226.493 473.192 229.368C473.505 229.811 473.821 230.246 474.137 230.681C474.881 231.703 475.622 232.722 476.306 233.836C476.486 234.118 476.666 234.397 476.846 234.677C477.66 235.941 478.471 237.2 479.209 238.564C482.909 245.037 485.932 252.318 487.7 260.091C488.179 262.197 487.515 264.536 485.997 265.683C484.224 267.016 481.96 266.214 480.942 263.892L480.882 263.751C478.286 257.826 474.926 252.618 471.096 248.042C470.363 247.1 469.553 246.237 468.747 245.378C468.543 245.161 468.34 244.944 468.138 244.727C467.479 243.974 466.754 243.293 466.032 242.614L466.031 242.613L466.03 242.612C465.69 242.293 465.351 241.974 465.02 241.648C462.907 239.649 460.703 237.79 458.426 236.073C449.3 229.204 439.295 224.177 428.992 220.387C418.672 216.653 408.067 214.027 397.354 212.383C397.036 212.325 396.717 212.276 396.398 212.227C396.284 212.21 396.17 212.192 396.056 212.174C396.112 212.222 396.169 212.267 396.226 212.312V212.313C396.268 212.346 396.31 212.38 396.352 212.414C396.37 212.429 396.389 212.445 396.407 212.46C396.425 212.476 396.443 212.491 396.461 212.507C402.887 218.083 408.739 225.25 413.44 233.887C415.782 238.214 417.826 242.891 419.504 247.845C419.922 249.053 420.336 250.386 420.716 251.719C421.095 253.053 421.453 254.403 421.768 255.775C422.398 258.515 422.907 261.305 423.282 264.118C423.648 266.937 423.886 269.767 424.002 272.591C424.106 275.415 424.084 278.222 423.959 280.99C423.679 286.531 422.958 291.892 421.941 297.015C419.858 307.25 416.589 316.457 412.746 324.749C410.84 328.912 408.752 332.844 406.579 336.594C404.418 340.362 402.115 343.915 399.756 347.326C395.029 354.15 389.979 360.341 384.744 366.063C379.508 371.79 374.074 377.032 368.524 381.924C362.982 386.832 357.319 391.379 351.584 395.661C345.839 399.925 340.039 403.97 334.182 407.783C331.254 409.692 328.304 411.522 325.35 413.329C322.4 415.143 319.437 416.905 316.461 418.611C292.72 432.444 268.172 443.103 243.254 450.999C241.619 451.519 239.907 450.361 239.316 448.237C238.678 445.961 239.571 443.436 241.313 442.6L241.317 442.594C265.033 431.218 287.967 417.362 309.419 400.711C312.088 398.604 314.736 396.457 317.354 394.266C319.967 392.063 322.542 389.786 325.091 387.482C330.188 382.867 335.165 378.077 339.961 373.044C344.757 368.017 349.41 362.832 353.852 357.449C358.29 352.06 362.542 346.502 366.544 340.802C370.551 335.109 374.298 329.245 377.705 323.286C379.413 320.31 381.005 317.276 382.514 314.254C384.019 311.227 385.378 308.148 386.641 305.104C389.121 298.981 391.058 292.841 392.166 286.949C392.459 285.436 392.692 283.939 392.869 282.464C392.412 283.718 391.937 284.955 391.441 286.153C386.93 296.942 381.22 305.465 375.277 312.667C363.28 326.963 350.255 336.594 337.089 344.491C323.892 352.314 310.436 358.143 296.903 362.837C283.366 367.497 269.72 370.903 256.049 373.327C242.378 375.755 228.668 377.134 214.993 377.749C208.153 378.037 201.313 378.06 194.486 377.947C187.655 377.732 180.836 377.427 174.031 376.761C167.225 376.162 160.437 375.298 153.675 374.236C146.913 373.146 140.181 371.779 133.483 370.18C126.794 368.491 120.131 366.69 113.537 364.458C106.947 362.227 100.414 359.702 93.9747 356.799C92.0254 355.912 90.8696 353.19 91.3871 350.523C91.9176 347.688 94.1084 345.982 96.2605 346.699ZM487.984 334.504C488.264 332.968 488.493 331.194 488.67 329.505C488.842 327.794 488.985 326.065 489.066 324.331C489.248 320.869 489.274 317.395 489.174 313.932L489.058 311.34C489.028 310.476 488.972 309.611 488.898 308.753L488.704 306.171L488.437 303.601C488.335 302.439 488.175 301.287 488.016 300.136C487.94 299.587 487.864 299.039 487.794 298.489C487.639 297.398 487.455 296.314 487.271 295.231L487.27 295.23V295.229C487.169 294.631 487.067 294.033 486.97 293.434L486.936 293.214C486.914 293.072 486.897 292.931 486.884 292.784C486.686 290.372 488.018 288.203 489.864 287.944C491.706 287.684 493.362 289.429 493.561 291.847C493.613 292.489 493.67 293.13 493.727 293.771C493.835 294.974 493.942 296.177 494.018 297.382C494.046 297.957 494.08 298.531 494.113 299.104V299.105V299.106V299.107V299.108C494.188 300.381 494.262 301.652 494.277 302.929L494.346 305.703L494.337 308.476C494.341 309.402 494.328 310.323 494.29 311.249L494.195 314.017C494.014 317.706 493.699 321.372 493.22 325.009C492.991 326.828 492.698 328.636 492.37 330.437C492.03 332.256 491.676 333.979 491.167 335.871C490.882 336.911 490.037 337.538 489.2 337.278C488.303 336.995 487.747 335.815 487.962 334.634L487.984 334.504ZM144.436 313.621C143.808 313.146 143.179 312.67 142.591 312.114L139.973 309.786L137.455 307.256C135.816 305.505 134.203 303.686 132.689 301.726C131.154 299.794 129.726 297.715 128.346 295.58C128.164 295.275 127.979 294.972 127.794 294.668C127.313 293.88 126.832 293.09 126.393 292.27C126.074 291.711 125.767 291.146 125.478 290.57C125.185 290.011 124.892 289.395 124.655 288.887L124.59 288.751C124.085 287.684 123.016 287.35 122.201 288.006C121.446 288.61 121.17 289.847 121.524 290.875C121.791 291.655 122.028 292.31 122.3 292.993C122.559 293.677 122.835 294.343 123.119 294.993C123.531 295.99 123.984 296.949 124.438 297.91C124.588 298.229 124.738 298.547 124.888 298.868C126.147 301.376 127.471 303.838 128.924 306.171C130.352 308.532 131.904 310.764 133.509 312.944L135.988 316.124L138.611 319.112C139.216 319.834 139.866 320.475 140.518 321.117C140.794 321.39 141.071 321.663 141.345 321.942C141.572 322.165 141.797 322.391 142.023 322.618C142.723 323.32 143.424 324.024 144.174 324.631L147.102 327.15C147.761 327.697 148.444 328.19 149.127 328.685C149.468 328.932 149.808 329.178 150.147 329.432C151.661 330.623 153.256 331.588 154.856 332.557H154.857C155.389 332.879 155.921 333.202 156.452 333.533C157.179 334.015 157.934 334.382 158.692 334.749C159.035 334.916 159.379 335.083 159.721 335.261L163.033 336.894C165.586 338.153 168.433 336.464 169.394 333.12C170.356 329.776 169.067 326.048 166.514 324.789C166.337 324.698 166.16 324.625 165.983 324.569L165.629 324.456L162.615 323.484C162.284 323.368 161.949 323.266 161.614 323.163L161.613 323.162C160.934 322.954 160.254 322.745 159.605 322.428C159.065 322.186 158.52 321.956 157.974 321.724C156.541 321.118 155.101 320.508 153.726 319.694C153.37 319.494 153.01 319.304 152.65 319.114C152.041 318.792 151.43 318.47 150.837 318.101L148.029 316.271C147.327 315.852 146.667 315.34 146.006 314.827L145.847 314.703C145.779 314.651 145.712 314.599 145.645 314.547C145.524 314.455 145.404 314.362 145.282 314.271C145.003 314.05 144.72 313.835 144.436 313.621ZM52.9175 323.162C53.448 322.168 54.4959 321.931 55.255 322.625L55.3024 322.67C56.786 324.037 58.4118 325.382 60.0161 326.647C61.6334 327.912 63.2679 329.132 64.9326 330.285C66.5973 331.431 68.2663 332.55 69.9698 333.578C71.6604 334.628 73.3811 335.594 75.0976 336.526L75.1493 336.555C75.2916 336.634 75.4296 336.724 75.5676 336.831C77.159 338.08 77.6765 340.78 76.7234 342.864C75.7703 344.948 73.7089 345.626 72.1132 344.378C70.414 343.045 68.7277 341.695 67.0889 340.26C65.4415 338.848 63.8329 337.357 62.2501 335.843C60.6673 334.323 59.1191 332.742 57.601 331.121C56.0787 329.483 54.6167 327.845 53.1417 326.014C52.5423 325.28 52.4302 324.066 52.9175 323.162ZM123.033 459.732L123.007 459.727C122.455 459.625 121.946 460.122 121.872 460.845C121.799 461.523 122.14 462.161 122.64 462.314C124.611 462.912 126.543 463.37 128.51 463.782C130.472 464.189 132.438 464.539 134.414 464.816C136.389 465.087 138.368 465.324 140.357 465.471C142.345 465.641 144.337 465.714 146.334 465.759C147.447 465.787 148.361 464.629 148.382 463.172C148.404 461.715 147.52 460.517 146.407 460.489C146.38 460.489 146.352 460.489 146.324 460.49L146.3 460.491C146.279 460.491 146.259 460.493 146.239 460.495H146.209C144.285 460.664 142.353 460.811 140.421 460.862C138.489 460.941 136.548 460.924 134.612 460.873C132.671 460.822 130.735 460.692 128.799 460.512C126.871 460.325 124.913 460.082 123.033 459.732ZM210.663 452.282C204.591 454.276 198.424 455.823 192.192 456.919C190.907 457.145 190.005 458.687 190.174 460.37C190.338 461.974 191.433 463.127 192.649 463.031C199.092 462.5 205.531 461.494 211.918 460.009H211.922C213.566 459.625 214.657 457.574 214.368 455.428C214.074 453.276 212.509 451.847 210.87 452.225C210.827 452.236 210.782 452.246 210.738 452.258C210.712 452.266 210.687 452.273 210.663 452.282Z" fill="url(#paint1_radial_616_2)"/>
<path fill-rule="evenodd" clip-rule="evenodd" d="M363.181 151.472C363.19 151.472 363.199 151.471 363.208 151.47C363.215 151.47 363.222 151.47 363.228 151.47C379.207 149.82 395.302 149.854 411.241 152H411.246C412.721 152.204 414.036 150.797 414.187 148.871C414.338 146.979 413.303 145.279 411.871 145.03C395.612 142.24 379.159 141.607 362.789 142.709C360.938 142.833 359.52 144.9 359.614 147.318C359.709 149.741 361.288 151.599 363.134 151.475C363.147 151.475 363.164 151.474 363.181 151.472ZM218.981 172.478C225.567 163.113 232.929 154.55 240.76 146.715C241.347 146.128 241.463 145.026 241.019 144.247C240.601 143.524 239.837 143.349 239.26 143.801C230.69 150.522 222.444 158.114 214.785 166.801C213.521 168.23 213.383 170.727 214.475 172.382C215.566 174.037 217.472 174.218 218.736 172.789C218.822 172.693 218.904 172.585 218.981 172.478ZM160.934 188.739H160.933C160.895 188.841 160.856 188.942 160.809 189.038C160.123 190.478 158.678 190.925 157.574 190.026C156.47 189.128 156.134 187.236 156.819 185.79L156.824 185.784C160.084 178.904 163.797 172.488 167.808 166.472C168.252 165.806 169.02 165.67 169.585 166.184C170.193 166.738 170.344 167.833 169.917 168.63C166.51 175.058 163.465 181.768 160.934 188.739ZM155.021 206.215C153.335 213.665 152.356 221.336 152.321 228.945C152.321 228.962 152.321 228.979 152.321 228.998C152.32 229.075 152.316 229.159 152.313 229.233C152.179 231.407 150.726 233.034 149.065 232.859C147.404 232.684 146.162 230.78 146.296 228.606V228.589C146.809 220.161 148.345 211.977 150.575 204.244C151.006 202.758 152.252 201.922 153.439 202.385C154.681 202.865 155.388 204.577 155.021 206.204V206.215ZM232.506 359.313C241.904 357.59 251.249 355.415 260.504 352.755C260.521 352.749 260.556 352.743 260.573 352.738C262.208 352.32 263.79 353.715 264.11 355.856C264.429 357.997 263.363 360.07 261.729 360.488C252.267 362.905 242.745 364.82 233.183 366.277C231.743 366.492 230.423 365.17 230.221 363.278C230.018 361.357 231.04 359.584 232.506 359.313ZM153.131 363.267C152.208 363.193 151.414 364.108 151.354 365.317C151.294 366.503 151.966 367.525 152.855 367.638C171.891 370.096 191.078 370.53 210.209 369.237C211.688 369.135 212.827 367.486 212.749 365.549C212.672 363.611 211.412 362.12 209.933 362.222C209.907 362.227 209.864 362.227 209.838 362.233C191.009 364.379 172.033 364.826 153.131 363.267ZM363.413 362.82L363.417 362.815C371.607 353.608 379.292 343.655 385.973 332.759L385.986 332.742C385.994 332.73 386.002 332.717 386.01 332.704C386.028 332.675 386.047 332.645 386.068 332.618C387.284 330.793 389.401 330.601 390.794 332.194C392.187 333.787 392.334 336.56 391.118 338.385C383.752 349.439 375.502 359.256 366.824 368.237C365.703 369.395 364.069 369.203 363.129 367.768C362.158 366.294 362.288 364.08 363.413 362.82ZM340.04 385.081C325.385 398.028 309.842 409.342 293.795 419.294C292.958 419.814 292.6 421.119 292.997 422.22C293.381 423.288 294.347 423.757 295.171 423.299C311.628 414.058 327.671 403.411 342.955 390.973C344.214 389.95 344.598 387.787 343.818 386.138C343.037 384.488 341.385 383.985 340.126 385.008C340.113 385.019 340.098 385.032 340.083 385.045H340.082L340.063 385.061L340.04 385.081ZM449.511 161.705C442.999 159.298 436.388 157.378 429.729 155.887C429.673 155.875 429.612 155.859 429.556 155.842C428.116 155.39 427.227 153.492 427.572 151.611C427.918 149.724 429.367 148.561 430.803 149.012C437.543 151.125 444.202 153.667 450.727 156.694C451.715 157.158 452.28 158.553 451.991 159.897C451.693 161.292 450.581 162.106 449.511 161.705ZM426.65 202.125C435.849 206.384 444.824 211.57 453.233 218.077C454.13 218.777 454.484 220.28 454.01 221.522C453.514 222.822 452.306 223.353 451.314 222.703L451.31 222.697C442.866 217.167 433.938 212.959 424.843 209.661C424.778 209.638 424.705 209.61 424.64 209.576C423.07 208.847 422.247 206.593 422.803 204.532C423.355 202.476 425.08 201.397 426.65 202.125ZM321.776 324.682C309.769 332.9 297.055 339.644 284.018 345.203C282.431 345.88 281.564 348.106 282.078 350.185C282.569 352.167 284.152 353.286 285.67 352.8C292.462 350.608 299.199 348.089 305.888 345.27C312.577 342.446 319.201 339.277 325.722 335.662C332.243 332.047 338.656 327.98 344.896 323.332C351.119 318.655 357.204 313.458 362.91 307.307C368.598 301.161 373.968 294.089 378.349 285.526C380.532 281.244 382.446 276.579 383.921 271.535C385.383 266.485 386.375 261.051 386.72 255.453C386.893 252.652 386.91 249.85 386.746 247.003C386.582 244.156 386.242 241.253 385.672 238.349C385.366 236.757 384.969 235.164 384.512 233.588C389.273 237.649 393.448 242.648 396.708 248.63C397.838 250.686 398.852 252.855 399.779 255.109L400.452 256.815L401.077 258.56C401.465 259.684 401.797 260.774 402.099 261.949C403.315 266.603 403.962 271.789 404.126 277.042C404.256 282.301 404.01 287.667 403.242 292.875C402.462 298.06 401.258 303.195 399.326 307.533L399.287 307.617C398.446 309.504 398.934 311.927 400.374 313.029C401.685 314.028 403.337 313.588 404.256 312.074C405.8 309.538 407.037 306.798 408.072 303.985C409.129 301.172 409.953 298.263 410.643 295.315C412.018 289.418 412.829 283.323 413.049 277.127C413.248 270.936 412.972 264.604 411.725 258.249C411.419 256.673 411.026 255.052 410.595 253.521L409.948 251.307L409.237 249.121C408.253 246.218 407.098 243.399 405.804 240.688C403.225 235.254 400.016 230.306 396.394 226.041C392.788 221.748 388.773 218.139 384.594 215.123C376.21 209.079 367.214 205.345 358.222 202.882C353.737 201.674 349.299 200.702 344.788 199.962C343.128 199.685 341.459 199.448 339.79 199.233C345.651 198.652 351.529 198.279 357.411 198.155C371.402 197.855 385.431 198.917 399.305 201.561H399.318C400.969 201.877 402.496 200.38 402.738 198.222C402.966 196.149 401.91 194.212 400.361 193.788C386.272 189.981 371.928 187.778 357.532 186.971C343.136 186.168 328.68 186.694 314.289 188.597C311.106 188.982 307.933 189.507 304.755 190.034C304.338 190.103 303.92 190.172 303.503 190.241C302.913 190.355 302.324 190.469 301.734 190.582C298.741 191.157 295.743 191.733 292.76 192.455C285.614 194.11 278.485 196.059 271.434 198.505C259.621 202.577 247.938 207.701 236.622 214.36C241.987 207.684 247.977 201.623 254.326 196.189C259.837 191.467 265.629 187.191 271.589 183.271C277.541 179.322 283.686 175.781 289.948 172.567C296.21 169.358 302.602 166.506 309.062 163.891C315.527 161.292 322.086 159.039 328.702 157.028L328.71 157.022C330.518 156.474 331.639 154.113 331.22 151.752C330.828 149.538 329.206 148.109 327.52 148.391C320.62 149.566 313.75 151.165 306.923 153.091C300.092 155 293.316 157.338 286.61 160.044C279.904 162.755 273.258 165.834 266.729 169.398C260.212 172.99 253.812 177.069 247.589 181.695C241.37 186.327 235.328 191.523 229.61 197.46C223.887 203.379 218.513 210.096 213.782 217.727L212.07 220.664C211.886 220.99 211.698 221.309 211.509 221.629C211.122 222.284 210.735 222.94 210.392 223.646L208.805 226.736L208.016 228.284L207.287 229.894C207.097 230.327 206.906 230.759 206.714 231.191C205.948 232.92 205.181 234.65 204.536 236.48L203.268 239.863C202.953 240.784 202.663 241.726 202.373 242.666C202.302 242.898 202.231 243.129 202.159 243.36C201.017 247.065 200.063 250.889 199.304 254.787C199.093 254.154 198.89 253.51 198.701 252.866C198.006 250.505 197.437 248.059 197.001 245.546C196.13 240.519 195.837 235.203 196.087 229.786C196.587 218.924 199.373 207.774 203.539 197.324L203.552 197.29C204.449 195.042 203.785 192.263 202.069 191.088C200.568 190.06 198.761 190.597 197.73 192.246C194.642 197.177 191.809 202.498 189.377 208.254C186.953 214.01 184.917 220.206 183.524 226.821C182.131 233.418 181.355 240.428 181.42 247.562C181.45 251.126 181.679 254.719 182.106 258.283C182.321 260.068 182.584 261.836 182.899 263.61C183.248 265.412 183.632 267.213 184.107 269.004C185.944 276.178 188.954 283.137 192.853 289.096C194.845 292.152 197.053 294.925 199.404 297.422C197.61 296.789 195.828 296.111 194.06 295.36C191.762 294.355 189.493 293.248 187.259 292.022C182.817 289.514 178.522 286.548 174.528 282.995C170.513 279.476 166.834 275.325 163.552 270.665C160.279 265.993 157.476 260.746 155.203 255.069L155.186 255.03C154.496 253.312 152.874 252.646 151.563 253.55C150.338 254.391 149.821 256.312 150.317 257.961C152.305 264.491 154.944 270.738 158.179 276.432C161.413 282.126 165.183 287.317 169.327 291.909C173.463 296.529 177.974 300.534 182.688 304.042C185.047 305.787 187.458 307.414 189.907 308.928C192.365 310.413 194.858 311.797 197.385 313.068C207.507 318.107 218.125 321.168 228.807 322.665C239.503 324.134 250.259 324.026 260.915 322.897C271.568 321.677 282.125 319.236 292.415 315.604C294.99 314.701 297.543 313.712 300.087 312.684C302.623 311.628 305.142 310.492 307.647 309.329C312.659 306.985 317.554 304.279 322.436 301.511C332.174 295.897 341.631 289.079 350.339 280.578C354.677 276.308 358.83 271.625 362.608 266.332C364.48 263.666 366.287 260.887 367.939 257.899C368.758 256.385 369.547 254.843 370.298 253.222C370.302 253.211 370.311 253.194 370.315 253.183C370.332 253.617 370.341 254.058 370.345 254.493C370.38 257.956 370.009 261.492 369.263 265.033C368.499 268.569 367.374 272.099 365.938 275.545C363.065 282.442 359.024 288.938 354.418 294.869C349.795 300.8 344.616 306.239 339.104 311.159C333.588 316.084 327.775 320.575 321.776 324.682Z" fill="url(#paint2_radial_616_2)"/>
<path d="M211.757 286.113L211.848 286.17C216.221 288.943 221.103 290.74 226.071 291.96C231.057 293.157 236.158 293.807 241.273 294.067C246.392 294.321 251.533 294.185 256.661 293.756C261.789 293.321 266.903 292.621 271.975 291.57C272.126 291.542 272.277 291.502 272.424 291.474C268.344 291.338 264.243 290.943 260.115 290.186C257.196 289.644 254.263 288.921 251.3 287.921C248.337 286.91 245.344 285.662 242.278 283.786C240.751 282.866 239.199 281.764 237.629 280.375C236.068 278.979 234.472 277.336 232.958 275.031C231.466 272.755 230.034 269.721 229.357 266.072C229.215 265.18 229.068 264.197 229.004 263.361C228.965 262.593 228.939 261.819 228.922 261.045C228.887 260.271 228.965 259.52 229.008 258.763C229.064 258.012 229.107 257.244 229.241 256.538C229.353 255.82 229.478 255.103 229.607 254.391C229.758 253.708 229.94 253.058 230.116 252.392L230.388 251.409L230.703 250.499L231.363 248.703C232.316 246.478 233.372 244.433 234.515 242.716C236.784 239.208 239.246 236.491 241.739 234.119C246.746 229.402 251.943 226.047 257.196 223.178C262.453 220.353 267.775 218.083 273.14 216.224C278.5 214.349 283.9 212.869 289.321 211.728C294.742 210.587 300.18 209.728 305.636 209.22C316.534 208.13 327.505 208.282 338.395 209.966C343.837 210.83 349.267 212.123 354.615 214.089C359.945 216.094 365.245 218.738 370.127 222.923C371.4 224.019 371.835 226.239 371.076 228.007C370.287 229.854 368.501 230.515 367.087 229.481L366.983 229.402C362.774 226.318 357.91 224.313 352.946 222.935C347.96 221.573 342.832 220.822 337.683 220.478C327.376 219.828 316.978 220.607 306.74 222.573C306.175 222.675 305.614 222.799 305.053 222.912C308.836 223.042 312.631 223.403 316.452 224.07C319.346 224.578 322.248 225.256 325.185 226.211C328.118 227.165 331.085 228.374 334.104 230.08C335.622 230.984 337.144 231.95 338.692 233.221C340.24 234.503 341.815 236.005 343.346 238.033C344.859 240.044 346.382 242.682 347.343 246.071C347.563 246.935 347.796 247.782 347.934 248.686C348.003 249.138 348.068 249.596 348.124 250.048L348.206 250.731C348.223 250.94 348.228 251.115 348.241 251.313C348.275 252.075 348.301 252.844 348.31 253.606C348.318 254.369 348.245 255.109 348.197 255.86L348.107 256.978C348.064 257.345 348.003 257.696 347.947 258.052C347.831 258.763 347.714 259.475 347.572 260.17C347.236 261.469 346.917 262.853 346.464 263.999C346.248 264.593 346.032 265.197 345.804 265.767L345.075 267.377L344.704 268.174L344.312 268.902L343.51 270.343C341.323 274.042 338.895 276.827 336.441 279.296C333.978 281.747 331.451 283.781 328.898 285.616C326.345 287.435 323.766 289.079 321.166 290.508C315.964 293.411 310.69 295.705 305.377 297.631C294.75 301.432 283.973 303.759 273.165 304.906C267.766 305.522 262.341 305.77 256.92 305.736C251.499 305.697 246.078 305.341 240.669 304.584C235.266 303.81 229.879 302.635 224.557 300.85C219.248 299.026 213.978 296.608 209.023 292.886C207.703 291.892 207.169 289.706 207.846 287.887C208.549 285.983 210.304 285.187 211.757 286.113Z" fill="#E65757"/>
<path d="M371.257 282.843C372.792 280.29 374.142 277.104 375.233 273.918C376.333 270.704 377.217 267.366 377.817 263.983C378.399 260.599 378.688 257.165 378.571 253.832C378.455 250.499 377.916 247.28 376.915 244.371L376.894 244.309C376.881 244.275 376.872 244.235 376.859 244.201C376.303 242.405 376.958 240.355 378.33 239.626C379.701 238.897 381.267 239.756 381.823 241.552C383.039 245.461 383.578 249.624 383.591 253.674C383.609 257.735 383.139 261.695 382.362 265.485C381.569 269.27 380.478 272.896 379.167 276.37C377.83 279.849 376.355 283.137 374.298 286.294C373.599 287.362 372.374 287.531 371.524 286.65C370.653 285.752 370.507 284.097 371.192 282.956L371.257 282.843Z" fill="#E65757"/>
<path d="M226.545 215.625C225.316 217.54 224.173 219.732 223.134 221.986C222.09 224.245 221.137 226.589 220.279 228.984C218.567 233.774 217.23 238.773 216.428 243.812C215.626 248.839 215.384 253.939 216.014 258.65C216.622 263.372 218.118 267.614 220.387 271.083C220.447 271.173 220.512 271.28 220.568 271.376C221.922 273.76 221.538 277.132 219.718 278.906C217.898 280.68 215.324 280.177 213.969 277.793L213.961 277.776C212.477 275.155 211.257 272.263 210.381 269.23C209.502 266.197 208.962 263.039 208.721 259.904C208.234 253.612 208.902 247.494 210.114 241.789C211.339 236.067 213.116 230.69 215.255 225.618C216.329 223.082 217.493 220.624 218.765 218.246C220.042 215.868 221.405 213.575 223.018 211.383C223.884 210.209 225.316 210.096 226.282 211.163C227.296 212.276 227.425 214.259 226.571 215.58L226.545 215.625Z" fill="#E65757"/>
<path d="M186.695 245.303C186.699 244.399 186.678 243.501 186.703 242.597C186.721 241.693 186.751 240.795 186.807 239.892C186.859 238.977 186.928 238.112 187.04 237.118C187.169 235.988 187.941 235.158 188.825 235.249C189.748 235.339 190.438 236.395 190.365 237.604L190.356 237.717C190.313 238.434 190.283 239.299 190.279 240.112C190.266 240.937 190.279 241.761 190.304 242.592C190.317 243.416 190.382 244.247 190.417 245.071L190.615 247.54C190.938 250.821 191.499 254.047 192.28 257.142C192.491 257.91 192.651 258.701 192.905 259.441L193.621 261.684C193.871 262.424 194.177 263.124 194.449 263.847L194.867 264.92L195.355 265.943C195.682 266.62 195.993 267.304 196.329 267.97L197.433 269.874C197.619 270.185 197.791 270.518 197.99 270.817L198.606 271.687L199.831 273.433L200.008 273.681C200.042 273.732 200.077 273.783 200.107 273.834C201.043 275.336 200.871 277.55 199.719 278.776C198.572 280.002 196.881 279.776 195.945 278.268L194.587 276.082L193.914 274.992C193.699 274.619 193.513 274.218 193.31 273.834L192.133 271.495C191.779 270.687 191.452 269.863 191.111 269.044L190.611 267.818L190.188 266.547C189.912 265.694 189.61 264.858 189.364 264L188.674 261.396C188.433 260.531 188.29 259.633 188.096 258.758C187.393 255.222 186.949 251.624 186.772 248.025L186.695 245.303Z" fill="#E65757"/>
<path d="M291.304 201.154L291.274 201.165C288.246 202.046 285.18 203.114 282.17 204.261C279.155 205.413 276.167 206.684 273.217 208.062C270.271 209.446 267.377 210.988 264.54 212.649C261.715 214.338 258.976 216.213 256.354 218.263L256.307 218.303C256.281 218.325 256.251 218.348 256.221 218.365C255.082 219.167 253.659 218.614 253.042 217.117C252.43 215.625 252.852 213.761 253.995 212.954C256.898 210.903 259.86 209.113 262.871 207.525C265.89 205.978 268.934 204.566 272.009 203.329C275.084 202.097 278.185 200.985 281.299 199.996C284.421 199.008 287.531 198.126 290.731 197.398C291.498 197.223 292.24 197.867 292.412 198.872C292.589 199.9 292.093 200.922 291.304 201.154Z" fill="#E65757"/>
<path d="M355.42 305.143L355.433 305.132C356.891 303.675 358.306 302.116 359.655 300.472C360.333 299.653 361.001 298.811 361.648 297.953C362.295 297.1 362.946 296.207 363.533 295.349L363.554 295.321C363.571 295.298 363.589 295.27 363.606 295.247C364.257 294.383 365.318 294.377 365.974 295.23C366.633 296.083 366.638 297.473 365.986 298.331C365.275 299.275 364.585 300.127 363.865 300.986C363.149 301.839 362.42 302.675 361.678 303.488C360.199 305.121 358.655 306.663 357.051 308.109C356.443 308.657 355.602 308.487 355.149 307.708C354.687 306.9 354.804 305.753 355.42 305.143Z" fill="#E65757"/>
<path d="M318.643 196.172H318.634C316.741 196.211 314.839 196.375 312.946 196.652C311.997 196.788 311.052 196.946 310.108 197.132C309.172 197.319 308.215 197.528 307.313 197.759L307.287 197.765C307.274 197.77 307.257 197.77 307.24 197.776C306.511 197.929 305.821 197.279 305.705 196.319C305.588 195.364 306.084 194.46 306.817 194.308C307.826 194.099 308.788 193.935 309.776 193.794C310.755 193.653 311.738 193.534 312.721 193.444C314.688 193.257 316.663 193.184 318.647 193.246C319.242 193.263 319.729 193.896 319.738 194.686C319.751 195.494 319.259 196.161 318.643 196.172Z" fill="#E65757"/>
<path d="M241.48 313.04L241.515 313.046C243.762 313.249 246.009 313.413 248.264 313.401C250.515 313.413 252.771 313.339 255.022 313.159C257.273 312.989 259.52 312.746 261.759 312.407C263.984 312.074 266.252 311.667 268.387 311.159L268.435 311.148C268.491 311.136 268.542 311.125 268.598 311.119C269.888 310.939 271.044 312.159 271.182 313.848C271.32 315.537 270.388 317.05 269.099 317.231C266.701 317.57 264.415 317.751 262.073 317.875C259.749 317.999 257.42 318.028 255.095 317.982C252.771 317.943 250.446 317.802 248.126 317.564C245.806 317.355 243.494 316.96 241.191 316.531C240.506 316.401 239.997 315.593 240.044 314.672C240.105 313.706 240.743 312.978 241.48 313.04Z" fill="#E65757"/>
<path d="M356.142 240.389C354.865 238.445 353.27 236.841 351.523 235.604C349.776 234.367 347.862 233.475 345.986 233.04L345.947 233.034C345.891 233.023 345.835 233.006 345.774 232.983C344.519 232.56 343.765 230.882 344.088 229.238C344.412 227.595 345.692 226.606 346.947 227.03C349.393 227.854 351.618 229.176 353.671 230.899C355.715 232.628 357.569 234.791 359.036 237.401C360.502 239.999 361.537 243.066 361.955 246.24C362.387 249.415 362.214 252.623 361.718 255.645C361.572 256.526 360.925 257.136 360.23 257.012C359.497 256.882 358.984 256.001 359.083 255.041L359.092 254.967C359.368 252.29 359.338 249.613 358.846 247.116C358.359 244.614 357.419 242.326 356.142 240.389Z" fill="#E65757"/>
<path d="M252.632 186.987L252.611 187.004C251.045 188.157 249.462 189.422 247.931 190.71C246.396 192.003 244.882 193.342 243.412 194.737C240.483 197.528 237.672 200.55 235.386 203.888L235.364 203.922C235.317 203.989 235.269 204.057 235.213 204.119C234.265 205.277 232.777 205.204 231.897 203.956C231.013 202.713 231.069 200.764 232.022 199.612C234.959 196.042 238.137 193.263 241.389 190.704C243.019 189.439 244.671 188.241 246.34 187.106C248.018 185.965 249.682 184.886 251.429 183.864C252.054 183.497 252.805 183.807 253.145 184.604C253.508 185.44 253.279 186.513 252.632 186.987Z" fill="#E65757"/>
<path d="M240.313 260.966C240.283 260.237 240.266 259.514 240.322 258.797C240.361 258.08 240.391 257.357 240.507 256.668C240.865 253.866 241.637 251.302 242.603 249.042C244.574 244.54 247.183 241.1 249.909 238.146C252.665 235.231 255.593 232.803 258.599 230.679C264.62 226.448 270.942 223.409 277.359 221.048C283.785 218.715 290.319 217.122 296.887 216.122C297.81 215.987 298.672 216.8 298.845 218.015C299.026 219.28 298.388 220.5 297.417 220.737H297.409C291.082 222.274 284.85 224.386 278.834 227.165C272.831 229.967 267.004 233.401 261.734 237.739C259.108 239.914 256.628 242.315 254.442 244.97C253.376 246.32 252.35 247.698 251.479 249.161C250.616 250.624 249.866 252.132 249.305 253.651C248.762 255.171 248.43 256.69 248.335 258.119C248.283 258.481 248.309 258.825 248.305 259.176C248.288 259.526 248.326 259.865 248.361 260.198C248.378 260.362 248.382 260.548 248.404 260.689C248.434 260.808 248.456 260.927 248.477 261.045C248.486 261.164 248.542 261.277 248.572 261.39C248.611 261.503 248.62 261.621 248.68 261.734C249.021 262.762 249.827 263.853 250.901 264.841C250.923 263.683 251.009 262.542 251.19 261.463C251.488 259.633 251.953 257.927 252.523 256.459C253.657 253.476 255.084 251.16 256.546 249.24C259.496 245.399 262.649 242.812 265.823 240.626C269.006 238.457 272.24 236.785 275.505 235.407C278.769 234.023 282.064 232.978 285.377 232.153C292.001 230.554 298.694 229.877 305.439 230.3C308.812 230.521 312.193 231.035 315.565 231.955C318.938 232.91 322.319 234.22 325.631 236.429C327.283 237.547 328.922 238.909 330.457 240.727C331.225 241.62 331.949 242.687 332.609 243.851C333.256 245.054 333.838 246.382 334.243 247.867C334.442 248.602 334.614 249.37 334.722 250.149L334.864 251.324C334.895 251.697 334.899 252.03 334.912 252.386C334.938 253.086 334.959 253.787 334.903 254.476C334.864 255.171 334.839 255.866 334.731 256.526C334.39 259.226 333.661 261.717 332.734 263.898C331.798 266.078 330.69 267.999 329.504 269.755C328.309 271.495 327.028 273.037 325.709 274.489C323.052 277.33 320.227 279.691 317.325 281.764C311.516 285.882 305.4 288.842 299.194 291.141C292.984 293.411 286.662 294.959 280.309 295.919C279.421 296.049 278.588 295.264 278.42 294.095C278.248 292.875 278.864 291.7 279.796 291.468H279.805C285.924 289.983 291.949 287.938 297.762 285.243C303.563 282.527 309.195 279.194 314.28 274.969C316.812 272.856 319.205 270.523 321.31 267.942C322.34 266.637 323.315 265.287 324.16 263.869C324.988 262.452 325.709 260.983 326.239 259.509C326.765 258.035 327.076 256.555 327.166 255.171C327.214 254.821 327.188 254.482 327.192 254.143C327.209 253.804 327.171 253.471 327.136 253.143C327.119 252.985 327.115 252.798 327.093 252.663C327.063 252.544 327.041 252.431 327.02 252.313C326.998 252.2 326.968 252.092 326.938 251.985C326.623 253.73 326.17 255.357 325.614 256.764C324.428 259.848 322.94 262.22 321.418 264.203C318.351 268.151 315.091 270.806 311.805 273.048C308.514 275.274 305.167 276.991 301.791 278.409C298.418 279.832 295.007 280.905 291.587 281.753C284.743 283.402 277.825 284.102 270.851 283.685C267.367 283.464 263.874 282.945 260.385 282.007C256.896 281.03 253.398 279.702 249.965 277.443C248.253 276.302 246.55 274.907 244.958 273.043C244.16 272.133 243.406 271.026 242.711 269.829C242.038 268.58 241.426 267.213 240.999 265.671C240.878 265.304 240.805 264.892 240.714 264.502C240.632 264.107 240.538 263.717 240.494 263.305L240.348 262.085C240.331 261.683 240.326 261.333 240.313 260.966Z" fill="#FFADAD"/>
<path d="M329.495 217.196H329.486C326.834 217.077 324.177 217.128 321.525 217.314C320.197 217.405 318.873 217.523 317.549 217.676C316.233 217.828 314.892 218.009 313.616 218.224L313.594 218.229C313.551 218.235 313.503 218.241 313.46 218.246C312.537 218.303 311.753 217.365 311.709 216.156C311.666 214.948 312.382 213.92 313.305 213.863C314.702 213.778 316.048 213.745 317.415 213.739C318.778 213.728 320.136 213.756 321.499 213.812C324.22 213.92 326.942 214.163 329.65 214.581C330.163 214.66 330.556 215.247 330.539 215.931C330.517 216.654 330.051 217.224 329.495 217.196Z" fill="#FFADAD"/>
<path d="M261.09 261.364C259.915 252.931 271.269 243.155 286.448 239.529C301.628 235.904 314.885 239.802 316.059 248.236C317.234 256.669 305.88 266.445 290.701 270.071C275.521 273.696 262.264 269.798 261.09 261.364Z" fill="#E2D6FF"/>
<path d="M271.208 257.222C270.518 252.278 277.685 246.423 287.213 244.145C296.742 241.866 305.026 244.027 305.715 248.97C306.404 253.914 299.238 259.769 289.709 262.048C280.18 264.326 271.897 262.166 271.208 257.222Z" fill="#121214"/>
</g>
<defs>
<radialGradient id="paint0_radial_616_2" cx="0" cy="0" r="1" gradientUnits="userSpaceOnUse" gradientTransform="translate(287.948 252.346) rotate(90) scale(285.447 472.923)">
<stop stop-color="#4A2626"/>
<stop offset="0.484375" stop-color="#4A2626" stop-opacity="0.8"/>
<stop offset="0.703125" stop-color="#4A2626" stop-opacity="0.3"/>
<stop offset="0.989583" stop-color="#4A2626" stop-opacity="0"/>
</radialGradient>
<radialGradient id="paint1_radial_616_2" cx="0" cy="0" r="1" gradientUnits="userSpaceOnUse" gradientTransform="translate(264.866 250.654) rotate(98.427) scale(226.902 294.238)">
<stop stop-color="#E65757"/>
<stop offset="1" stop-color="#E65757" stop-opacity="0"/>
</radialGradient>
<radialGradient id="paint2_radial_616_2" cx="0" cy="0" r="1" gradientUnits="userSpaceOnUse" gradientTransform="translate(286.359 250.346) rotate(88.0191) scale(154.225 168.921)">
<stop stop-color="#FFADAD"/>
<stop offset="1" stop-color="#FFADAD" stop-opacity="0"/>
</radialGradient>
<clipPath id="clip0_616_2">
<rect width="544" height="520" fill="white"/>
</clipPath>
</defs>
</svg>
